<?xml version="1.0" encoding="UTF-8" standalone="no" ?>
<!DOCTYPE svg PUBLIC "-//W3C//DTD SVG 1.1//EN" "http://www.w3.org/Graphics/SVG/1.1/DTD/svg11.dtd">
<svg xmlns="http://www.w3.org/2000/svg" xmlns:xlink="http://www.w3.org/1999/xlink" version="1.1" width="1080" height="1080" viewBox="0 0 1080 1080" xml:space="preserve">
<desc>Created with Fabric.js 5.2.4</desc>
<defs>
</defs>
<g transform="matrix(1 0 0 1 540 540)" id="0bc23509-e014-4eec-95bb-9167091c7bc0"  >
<rect style="stroke: none; stroke-width: 0.5; stroke-dasharray: none; stroke-linecap: butt; stroke-dashoffset: 0; stroke-linejoin: miter; stroke-miterlimit: 4; fill: rgb(255,255,255); fill-rule: nonzero; opacity: 1; visibility: hidden;" vector-effect="non-scaling-stroke"  x="-540" y="-540" rx="0" ry="0" width="1080" height="1080" />
</g>
<g transform="matrix(1 0 0 1 540 540)" id="868e0887-e801-4bf9-81db-68c6785d0323"  >
</g>
<g transform="matrix(0 -2.33 2.33 0 540 540)" id="ff8b8fe9-6e72-465f-a905-4aa05a00011b"  >
<path style="stroke: rgb(0,0,0); stroke-width: 0; stroke-dasharray: none; stroke-linecap: butt; stroke-dashoffset: 0; stroke-linejoin: miter; stroke-miterlimit: 4; fill: rgb(0,0,0); fill-rule: nonzero; opacity: 1;" vector-effect="non-scaling-stroke"  transform=" translate(-223.5, -223.5)" d="M 439.5 112.079 L 7.5 112.079 C 3.357 112.079 0 115.437 0 119.579 L 0 327.42199999999997 C 0 331.56399999999996 3.357 334.92199999999997 7.5 334.92199999999997 L 439.5 334.92199999999997 C 443.643 334.92199999999997 447 331.56399999999996 447 327.42199999999997 L 447 119.579 C 447 115.437 443.643 112.079 439.5 112.079 z M 432 127.079 L 432 162 L 15 162 L 15 127.07900000000001 L 432 127.07900000000001 z M 50.97 177 L 50.97 250 L 42.852 250 L 42.852 177 L 50.97 177 z M 58.47 265 C 62.613 265 65.97 261.642 65.97 257.5 L 65.97 177 L 73 177 L 73 257.5 C 73 261.642 76.357 265 80.5 265 L 84 265 L 84 319.921 L 55 319.921 L 55 265 L 58.47 265 z M 96.118 250 L 88 250 L 88 177 L 96.118 177 L 96.118 250 z M 99 265 L 103.618 265 C 107.75999999999999 265 111.118 261.642 111.118 257.5 L 111.118 177 L 128 177 L 128 319.921 L 99 319.921 L 99 265 z M 143 177 L 160.882 177 L 160.882 257.5 C 160.882 261.642 164.239 265 168.382 265 L 172 265 L 172 319.921 L 143 319.921 L 143 177 z M 184 250 L 175.882 250 L 175.882 177 L 184 177 L 184 250 z M 187 265 L 191.5 265 C 195.643 265 199 261.642 199 257.5 L 199 177 L 204 177 L 204 257.5 C 204 261.642 207.357 265 211.5 265 L 216 265 L 216 319.921 L 187 319.921 L 187 265 z M 227.118 250 L 219 250 L 219 177 L 227.118 177 L 227.118 250 z M 231 265 L 234.618 265 C 238.761 265 242.118 261.642 242.118 257.5 L 242.118 177 L 248 177 L 248 257.5 C 248 261.642 251.357 265 255.5 265 L 260 265 L 260 319.921 L 231 319.921 L 231 265 z M 271.118 250 L 263 250 L 263 177 L 271.118 177 L 271.118 250 z M 275 265 L 278.618 265 C 282.76099999999997 265 286.118 261.642 286.118 257.5 L 286.118 177 L 304 177 L 304 319.921 L 275 319.921 L 275 265 z M 319 177 L 335.733 177 L 335.733 257.5 C 335.733 261.642 339.09000000000003 265 343.233 265 L 348 265 L 348 319.921 L 319 319.921 L 319 177 z M 358.852 250 L 350.734 250 L 350.734 177 L 358.852 177 L 358.852 250 z M 363 265 L 366.352 265 C 370.49499999999995 265 373.852 261.642 373.852 257.5 L 373.852 177 L 380.88199999999995 177 L 380.88199999999995 257.5 C 380.88199999999995 261.642 384.239 265 388.38199999999995 265 L 392 265 L 392 319.921 L 363 319.921 L 363 265 z M 404 250 L 395.882 250 L 395.882 177 L 404 177 L 404 250 z M 15 177 L 27.852 177 L 27.852 257.5 C 27.852 261.642 31.209 265 35.352000000000004 265 L 40 265 L 40 319.921 L 15 319.921 L 15 177 z M 407 319.921 L 407 265 L 411.5 265 C 415.643 265 419 261.642 419 257.5 L 419 177 L 432 177 L 432 319.921 L 407 319.921 z" stroke-linecap="round" />
</g>
</svg>